<?xml version="1.0" standalone="no"?>
<!DOCTYPE svg PUBLIC "-//W3C//DTD SVG 20010904//EN"
 "http://www.w3.org/TR/2001/REC-SVG-20010904/DTD/svg10.dtd">
<svg version="1.0" xmlns="http://www.w3.org/2000/svg"
 width="260.000000pt" height="260.000000pt" viewBox="0 0 260.000000 260.000000"
 preserveAspectRatio="xMidYMid meet">
<metadata>
Created by potrace 1.11, written by Peter Selinger 2001-2013
</metadata>
<g transform="translate(0.000000,260.000000) scale(0.100000,-0.100000)"
fill="#000000" stroke="none">
<path d="M650 2024 c-340 -73 -543 -336 -542 -699 2 -274 142 -513 362 -613
118 -54 190 -67 360 -66 125 0 191 12 285 51 48 20 161 92 192 122 l22 21 -85
85 c-46 47 -88 85 -93 85 -4 0 -18 -11 -30 -24 -31 -33 -138 -84 -201 -96
-175 -33 -348 15 -445 122 -76 85 -113 179 -117 298 -6 173 54 309 177 402
154 117 427 110 580 -16 l30 -24 82 81 c95 93 95 88 -7 157 -72 49 -128 77
-204 102 -79 26 -272 33 -366 12z"/>
<path d="M1400 2012 c-6 -2 -10 -49 -10 -121 l0 -117 330 1 329 0 -16 -25 c-9
-14 -66 -95 -127 -180 -60 -85 -135 -191 -166 -235 -31 -44 -106 -150 -166
-235 -223 -315 -203 -279 -203 -359 l0 -71 524 0 c490 0 523 1 527 17 2 10 3
63 3 118 l-1 100 -346 5 -347 5 93 130 c129 182 452 640 494 700 19 28 50 71
69 98 28 37 35 58 37 98 1 27 -2 55 -6 62 -5 9 -134 12 -507 12 -275 0 -505
-1 -511 -3z"/>
</g>
</svg>
