<svg xmlns="http://www.w3.org/2000/svg" width="600" height="600" preserveAspectRatio="xMidYMid meet" version="1.0" viewBox="0 0 450 450"><metadata>Created by potrace 1.11, written by Peter Selinger 2001-2013</metadata><g fill="#000" stroke="none"><path d="M0 2250 l0 -2250 2250 0 2250 0 0 2250 0 2250 -2250 0 -2250 0 0 -2250z m1586 1255 c224 -39 401 -120 577 -263 37 -30 66 -58 65 -62 -2 -4 -27 -28 -57 -53 l-54 -46 -48 43 c-250 224 -628 308 -981 217 -353 -91 -601 -345 -699 -716 -30 -116 -37 -348 -15 -484 27 -158 85 -308 169 -431 49 -72 176 -193 260 -248 233 -152 573 -200 867 -121 113 30 283 118 375 194 l79 66 53 -53 54 -53 -51 -48 c-142 -131 -369 -240 -580 -278 -118 -22 -372 -17 -497 10 -239 50 -408 137 -565 289 -123 119 -205 249 -266 422 -56 161 -67 234 -66 455 1 189 3 206 31 316 93 354 291 600 598 745 95 45 235 86 348 103 103 14 307 12 403 -4z m2634 -35 c0 -30 -60 -116 -1153 -1635 -189 -264 -343 -483 -340 -487 2 -5 339 -8 749 -8 l744 0 0 -80 0 -80 -880 0 -880 0 0 31 c0 30 5 38 1276 1829 111 157 200 288 197 293 -2 4 -317 7 -699 7 l-694 0 0 80 0 80 840 0 840 0 0 -30z" transform="translate(0.000000,450.000000) scale(0.100000,-0.100000)"/></g></svg>